<svg width="220" height="40" viewBox="0 0 220 40" fill="none" xmlns="http://www.w3.org/2000/svg">
<path d="M31.2335 28.3943C31.7476 25.9317 35.3462 22.4182 35.7974 17.5885C36.3849 11.2516 33.2164 0 17.7518 0C2.28717 0 0 11.6231 0 16.474C0 22.9595 4.71073 26.3138 4.49041 28.6172C4.51139 28.6278 4.53237 28.649 4.55336 28.6596C4.66876 31.1541 2.07734 31.3027 2.22422 32.8418C2.33963 34.0413 5.69694 34.3385 8.01558 33.0647C7.64838 33.7759 7.13429 34.4234 6.4943 34.7843C5.29826 35.453 4.33303 35.7821 4.33303 36.5251C4.33303 37.2681 7.92116 39.1575 11.6037 37.3212C12.6948 36.7799 13.4817 36.196 14.0797 35.6229C14.1007 35.7502 14.1112 35.867 14.1322 35.9731C14.3105 37.0346 14.9191 39.9961 17.5734 39.9961C20.2278 39.9961 20.7629 37.4061 21.2035 35.867C21.235 35.7396 21.277 35.6122 21.3084 35.4849C21.9065 36.1111 22.7458 36.748 23.9313 37.3424C27.6139 39.1788 31.202 37.2894 31.202 36.5463C31.202 35.8033 30.2368 35.4849 29.0408 34.8055C28.3588 34.4234 27.8237 33.7334 27.4565 32.9692C29.7752 34.3916 33.3423 34.1156 33.4577 32.8737C33.6046 31.3027 30.8873 31.1859 31.1391 28.511C31.1601 28.4473 31.1915 28.4261 31.2335 28.3943Z" fill="#FF48D8"/>
<path d="M10.8798 24.711C13.2033 24.711 15.0869 22.8053 15.0869 20.4545C15.0869 18.1037 13.2033 16.198 10.8798 16.198C8.55626 16.198 6.67267 18.1037 6.67267 20.4545C6.67267 22.8053 8.55626 24.711 10.8798 24.711Z" fill="white"/>
<path d="M11.1631 24.1166C12.7971 24.1166 14.1217 22.7764 14.1217 21.1232C14.1217 19.47 12.7971 18.1299 11.1631 18.1299C9.52909 18.1299 8.20447 19.47 8.20447 21.1232C8.20447 22.7764 9.52909 24.1166 11.1631 24.1166Z" fill="url(#paint0_linear)"/>
<path d="M9.44226 20.2097C9.81293 20.2097 10.1134 19.9057 10.1134 19.5306C10.1134 19.1556 9.81293 18.8516 9.44226 18.8516C9.0716 18.8516 8.77112 19.1556 8.77112 19.5306C8.77112 19.9057 9.0716 20.2097 9.44226 20.2097Z" fill="white"/>
<path d="M24.0677 24.382C26.2117 24.382 27.9496 22.6236 27.9496 20.4545C27.9496 18.2855 26.2117 16.5271 24.0677 16.5271C21.9238 16.5271 20.1859 18.2855 20.1859 20.4545C20.1859 22.6236 21.9238 24.382 24.0677 24.382Z" fill="white"/>
<path d="M24.0568 24.0946C25.685 24.0946 27.0049 22.7592 27.0049 21.1118C27.0049 19.4645 25.685 18.1291 24.0568 18.1291C22.4286 18.1291 21.1086 19.4645 21.1086 21.1118C21.1086 22.7592 22.4286 24.0946 24.0568 24.0946Z" fill="url(#paint1_linear)"/>
<path d="M22.5357 20.0823C22.9121 20.0823 23.2173 19.7736 23.2173 19.3927C23.2173 19.0118 22.9121 18.7031 22.5357 18.7031C22.1592 18.7031 21.8541 19.0118 21.8541 19.3927C21.8541 19.7736 22.1592 20.0823 22.5357 20.0823Z" fill="white"/>
<path d="M28.2535 12.5996C28.3584 12.642 28.4423 12.6845 28.5366 12.7269C28.631 12.7693 28.7149 12.8224 28.8093 12.8754C28.9037 12.9285 28.9876 12.9815 29.0819 13.0558C29.1763 13.1301 29.2602 13.1937 29.3651 13.321C29.47 13.4483 29.4385 13.6393 29.3127 13.7454C29.2288 13.8197 29.1134 13.8303 29.0085 13.7879L28.8932 13.7348C28.8722 13.7242 28.7988 13.6924 28.7359 13.6605C28.6625 13.6393 28.5891 13.6075 28.5052 13.5863C28.4213 13.5651 28.3374 13.5438 28.2535 13.5226C28.1696 13.5014 28.0752 13.4908 28.0018 13.4802C27.7501 13.4483 27.5719 13.2149 27.6033 12.9603C27.6348 12.7057 27.8655 12.5253 28.1172 12.5571C28.1591 12.5571 28.2011 12.5784 28.2325 12.589L28.2535 12.5996Z" fill="#100030"/>
<path d="M7.3539 13.9472C7.2805 13.9472 7.18612 13.9578 7.10222 13.9684C7.01833 13.979 6.93444 13.9896 6.85054 14.0108C6.76665 14.0321 6.68276 14.0427 6.60935 14.0639C6.53594 14.0851 6.46254 14.1169 6.42059 14.1382L6.34719 14.17C6.23183 14.223 6.09551 14.17 6.04307 14.0533C6.01161 13.979 6.0221 13.8835 6.06405 13.8199C6.14794 13.6926 6.23183 13.6183 6.31573 13.5546C6.39962 13.4804 6.48351 13.4167 6.57789 13.3637C6.66178 13.3106 6.75616 13.247 6.84006 13.2045C6.93444 13.1515 7.00784 13.109 7.11271 13.056L7.13368 13.0454C7.36439 12.9287 7.64753 13.0348 7.76288 13.2682C7.87823 13.5016 7.77337 13.788 7.54266 13.9048C7.47974 13.9366 7.41682 13.9472 7.3539 13.9472Z" fill="#100030"/>
<path d="M15.9787 27.1204C16.0416 27.1947 16.1046 27.2372 16.1885 27.2796C16.2724 27.3221 16.3669 27.3645 16.4823 27.407C16.7026 27.4813 16.9649 27.5131 17.2272 27.5025C17.4895 27.4919 17.7622 27.4388 18.0035 27.3433C18.1294 27.3009 18.2344 27.2478 18.3288 27.1947L18.4337 27.131C18.4652 27.1098 18.4862 27.0992 18.5176 27.0886L18.9898 26.8444C19.1471 26.7701 19.336 26.8338 19.4094 26.9824C19.4199 27.0143 19.4304 27.0461 19.4409 27.0779C19.4619 27.2478 19.4514 27.4282 19.3989 27.5768C19.3884 27.6193 19.3779 27.6511 19.357 27.6936L19.3045 27.7997C19.273 27.874 19.2311 27.9271 19.1891 27.9908C19.0317 28.2243 18.8324 28.3836 18.633 28.5215C18.2239 28.7869 17.7622 28.9355 17.2796 28.9567C16.797 28.978 16.3039 28.8718 15.8633 28.5852C15.6429 28.4472 15.4436 28.2562 15.2862 28.0014C15.1393 27.7573 15.0554 27.4282 15.1079 27.1204C15.1498 26.8975 15.3702 26.7595 15.5905 26.802C15.6849 26.8232 15.7583 26.8657 15.8108 26.9293L15.9787 27.1204Z" fill="#100030"/>
<path d="M70.8617 20.2342C70.8617 23.9608 68.1546 26.9826 63.9701 26.9826C60.1668 26.9826 57.2214 24.0477 57.2214 20.3211C57.2214 16.4014 60.2335 13.6596 64.0463 13.6596C67.8591 13.6596 70.8617 16.5076 70.8617 20.2342ZM64.0463 24.4725C66.3054 24.4725 67.9163 22.6188 67.9163 20.3308C67.9163 18.0427 66.4675 16.1794 64.0463 16.1794C61.6633 16.1794 60.1763 18.033 60.1763 20.3211C60.1763 22.6092 61.7682 24.4725 64.0463 24.4725Z" fill="white"/>
<path d="M77.801 13.8719C72.73 14.2388 71.5766 19.008 71.7005 20.3983C71.6338 22.4933 73.0732 26.9826 78.678 26.9826C79.412 26.9729 80.0887 26.9053 80.7083 26.7895V24.2504C80.1745 24.3469 79.5263 24.4048 78.7447 24.4242C76.1329 24.4917 74.6459 22.3195 74.6555 20.4079C74.6555 18.1874 76.4475 16.3627 78.7447 16.3917H83.2724L83.282 22.6767C83.282 22.6767 82.9579 27.9963 89.5922 26.886V24.3566C85.9128 25.1579 86.1035 22.8119 86.1035 22.8119V16.3821H89.5922V13.8719H86.1035V10.908H83.2724V13.8719H77.801Z" fill="white"/>
<path d="M103.938 20.2342C103.938 23.9608 101.231 26.9826 97.0462 26.9826C93.2429 26.9826 90.2975 24.0477 90.2975 20.3211C90.2975 16.4014 93.3096 13.6596 97.1225 13.6596C100.935 13.6596 103.938 16.5076 103.938 20.2342ZM97.1225 24.4725C99.3816 24.4725 100.992 22.6188 100.992 20.3308C100.992 18.0427 99.5436 16.1794 97.1225 16.1794C94.7395 16.1794 93.2525 18.033 93.2525 20.3211C93.2525 22.6092 94.8443 24.4725 97.1225 24.4725Z" fill="white"/>
<path d="M107.589 30.7961C107.35 32.6401 104.777 31.6553 104.777 31.6553V20.3211C104.939 16.7104 107.074 13.7658 111.468 13.6596C115.348 13.5727 118.141 16.498 118.16 20.2246C118.188 24.1732 115.453 27.1081 111.411 26.9343C109.972 26.8571 108.561 26.2778 107.589 25.0131C107.598 25.0228 107.589 29.4831 107.589 30.7961ZM111.401 24.4821C113.641 24.4821 115.233 22.6285 115.233 20.3404C115.233 18.0523 113.804 16.1987 111.401 16.1987C109.047 16.1987 107.57 18.0523 107.57 20.3404C107.57 22.6285 109.152 24.4821 111.401 24.4821Z" fill="white"/>
<path d="M118.989 21.5568C118.989 21.5568 118.989 16.4593 118.989 15.1367C119.227 13.2927 121.801 14.2774 121.801 14.2774V21.161C121.801 23.3043 123.25 24.3566 125.042 24.3566C126.834 24.3566 128.283 23.3429 128.283 21.161C128.283 21.161 128.292 16.4593 128.292 15.1367C128.531 13.2927 131.095 14.2871 131.095 14.2871V18.7088C131.457 24.1635 136.614 24.569 136.614 24.569C141.742 25.2834 141.294 23.1594 141.294 23.1594C141.16 22.0878 140.369 21.8465 139.006 21.663C138.158 21.5568 137.424 21.4796 137.424 21.4796C131.924 21.132 132.467 17.4537 132.467 17.4537C132.534 14.345 135.823 13.8719 135.823 13.8719C138.72 13.3506 140.77 13.8623 140.77 13.8623C145.278 14.8181 143.057 16.9806 142.686 17.1061C142.686 17.1061 141.485 15.9959 138.673 15.8318C135.212 15.6097 135.27 17.2606 135.27 17.2606C135.155 18.4674 136.68 18.6895 136.68 18.6895L140.388 19.2108C144.773 19.8287 144.239 22.976 144.239 22.976C143.953 26.915 139.321 26.944 139.321 26.944C132.982 27.3205 130.599 23.9801 130.599 23.9801C129.712 25.7661 127.94 26.9633 124.985 26.9633C121.467 26.9633 118.989 24.9648 118.989 21.383" fill="white"/>
<path d="M158.48 24.1442C157.384 25.4282 155.878 26.1137 154.105 26.1137C152.475 26.1137 151.093 25.5248 150.111 24.4145C149.186 23.3718 148.681 21.9044 148.681 20.2921V20.0507H159.557V19.9542C159.5 18.2743 158.919 16.7393 157.899 15.6194C156.831 14.4415 155.392 13.8236 153.752 13.8236C150.388 13.8236 147.947 16.5462 147.947 20.2921C147.947 24.1345 150.483 26.8088 154.105 26.8088C156.097 26.8088 157.784 26.0654 159.004 24.6655L159.062 24.5979L158.537 24.0669L158.48 24.1442ZM148.748 19.3556C149.148 16.411 151.093 14.5188 153.743 14.5188C155.106 14.5188 156.307 15.0208 157.222 15.9766C158.061 16.8455 158.595 18.0523 158.719 19.3653H148.748V19.3556Z" fill="white"/>
<path d="M171.082 15.436C170.119 14.4126 168.727 13.8237 167.25 13.8237C165.782 13.8237 164.381 14.4126 163.418 15.436C162.503 16.4304 162.074 17.7144 162.074 19.4811V26.5288H162.817V19.4811C162.817 17.9171 163.189 16.7779 163.999 15.909C164.79 15.0498 166.039 14.5188 167.25 14.5188C168.46 14.5188 169.709 15.0498 170.5 15.909C171.31 16.7876 171.682 17.9268 171.682 19.4811V26.5288H172.426V19.4811C172.426 17.7144 171.997 16.4304 171.082 15.436Z" fill="white"/>
<path d="M185.446 24.1442C184.35 25.4282 182.844 26.1137 181.071 26.1137C179.441 26.1137 178.059 25.5248 177.077 24.4145C176.153 23.3719 175.648 21.9044 175.648 20.2921V20.0507H186.523V19.9542C186.466 18.2743 185.885 16.7393 184.865 15.6194C183.797 14.4415 182.358 13.8237 180.719 13.8237C177.354 13.8237 174.914 16.5462 174.914 20.2921C174.914 24.1346 177.449 26.8088 181.071 26.8088C183.063 26.8088 184.751 26.0654 185.971 24.6655L186.028 24.598L185.504 24.067L185.446 24.1442ZM175.714 19.3556C176.115 16.411 178.059 14.5188 180.709 14.5188C182.072 14.5188 183.273 15.0208 184.188 15.9766C185.027 16.8455 185.561 18.0523 185.685 19.3653H175.714V19.3556Z" fill="white"/>
<path d="M194.244 13.8237C192.777 13.8237 191.375 14.4126 190.413 15.436C189.497 16.4304 189.069 17.7144 189.069 19.4811V26.5288H189.812V19.4811C189.812 17.9171 190.184 16.7779 190.994 15.909C191.785 15.0498 193.034 14.5188 194.244 14.5188H194.34V13.8237H194.244Z" fill="white"/>
<path d="M201.346 13.8237C199.592 13.8237 197.991 14.4995 196.818 15.7256C195.674 16.9324 195.036 18.564 195.036 20.3114C195.036 22.0589 195.665 23.6904 196.818 24.8972C197.991 26.1234 199.592 26.7992 201.346 26.7992C203.643 26.7992 205.492 25.6503 206.484 23.6422V26.3164C206.484 27.8129 206.436 29.512 205.835 30.574C205.035 31.9932 203.538 32.7752 201.613 32.7752C199.039 32.7752 197.266 31.3946 196.532 30.2072L196.475 30.1203L195.874 30.574L195.922 30.6513C196.37 31.3174 198.105 33.4703 201.603 33.4703C203.805 33.4703 205.483 32.6111 206.465 30.9795C207.16 29.792 207.218 27.9384 207.218 26.2875V20.3983V20.3597C207.218 20.3404 207.218 20.3307 207.218 20.3114C207.227 16.4979 204.815 13.8237 201.346 13.8237ZM206.484 20.3211C206.484 23.7387 204.367 26.1234 201.346 26.1234C198.229 26.1234 195.789 23.5746 195.789 20.3211C195.789 17.0675 198.229 14.5284 201.346 14.5284C204.367 14.5188 206.484 16.9034 206.484 20.3211Z" fill="white"/>
<path d="M219.19 14.1036L214.462 24.2118L209.172 14.1036H208.38L214.062 25.071L210.258 33.258H211.068L220 14.1036H219.19Z" fill="white"/>
<defs>
<linearGradient id="paint0_linear" x1="13.9694" y1="21.1244" x2="8.12148" y2="21.1244" gradientUnits="userSpaceOnUse">
<stop/>
<stop offset="0.4481" stop-color="#100030"/>
<stop offset="0.8399" stop-color="#180070"/>
<stop offset="1"/>
</linearGradient>
<linearGradient id="paint1_linear" x1="21.1264" y1="21.1071" x2="26.8508" y2="21.1071" gradientUnits="userSpaceOnUse">
<stop/>
<stop offset="0.4481" stop-color="#100030"/>
<stop offset="0.8399" stop-color="#180070"/>
<stop offset="1"/>
</linearGradient>
</defs>
</svg>
