<?xml version="1.0" standalone="no"?>
<!DOCTYPE svg PUBLIC "-//W3C//DTD SVG 20010904//EN"
 "http://www.w3.org/TR/2001/REC-SVG-20010904/DTD/svg10.dtd">
<svg version="1.0" xmlns="http://www.w3.org/2000/svg"
 width="700.000000pt" height="700.000000pt" viewBox="0 0 700.000000 700.000000"
 preserveAspectRatio="xMidYMid meet">
<metadata>
Created by potrace 1.11, written by Peter Selinger 2001-2013
</metadata>
<g transform="translate(0.000000,700.000000) scale(0.100000,-0.100000)"
fill="#000000" stroke="none">
<path d="M3317 6884 c-1 -1 -63 -5 -137 -8 -74 -3 -146 -8 -160 -11 -14 -2
-52 -6 -85 -9 -64 -5 -107 -11 -195 -27 -30 -5 -68 -11 -85 -14 -64 -11 -94
-18 -210 -46 -117 -29 -310 -88 -370 -114 -16 -8 -68 -30 -115 -50 -603 -259
-1064 -735 -1314 -1360 -16 -38 -32 -79 -36 -90 -19 -45 -96 -302 -104 -345
-2 -14 -7 -32 -10 -40 -3 -8 -7 -28 -10 -45 -2 -16 -9 -55 -15 -85 -7 -30 -14
-78 -16 -106 -3 -28 -8 -62 -10 -75 -19 -94 -26 -449 -12 -588 33 -313 153
-667 326 -959 17 -29 31 -55 31 -57 0 -3 20 -36 44 -74 159 -247 283 -459 315
-535 34 -81 56 -229 47 -306 -16 -129 -79 -221 -254 -370 -35 -30 -80 -77
-100 -104 -32 -43 -36 -57 -37 -106 0 -31 6 -68 13 -82 19 -35 85 -75 167
-101 61 -19 91 -22 240 -21 218 1 355 30 518 111 45 22 63 19 32 -7 -8 -7 -15
-16 -15 -21 0 -16 -59 -92 -115 -149 -36 -37 -90 -75 -162 -114 -192 -104
-259 -147 -287 -183 -69 -86 -26 -160 142 -243 149 -74 294 -104 497 -105 83
0 168 3 190 7 22 4 56 10 75 14 180 29 508 198 673 344 31 29 57 46 58 38 0
-7 2 -20 4 -28 1 -8 8 -44 15 -80 34 -188 119 -368 221 -471 111 -112 233
-156 399 -146 98 7 164 27 236 72 160 102 246 258 344 628 15 58 24 64 47 36
32 -38 195 -160 288 -214 178 -105 291 -148 500 -191 70 -14 311 -13 395 2
259 46 480 164 480 256 0 43 -30 90 -78 125 -21 15 -105 64 -187 108 -164 88
-250 161 -317 265 -66 104 -66 102 13 63 75 -37 193 -80 244 -89 17 -3 50 -10
75 -16 25 -6 113 -12 196 -14 132 -3 161 -1 237 20 148 39 208 96 202 188 -4
55 -48 133 -94 169 -77 61 -203 185 -230 228 -47 73 -71 151 -72 232 -1 38 4
75 9 82 6 7 20 41 32 77 34 103 131 290 259 500 185 302 310 548 386 756 26
72 63 198 71 242 3 14 7 29 9 32 5 8 9 35 24 140 37 266 30 523 -25 860 -26
160 -112 444 -186 615 -54 123 -185 366 -208 385 -3 3 -17 23 -30 45 -80 130
-302 372 -464 504 -244 199 -573 373 -906 479 -96 31 -269 76 -325 86 -16 2
-64 11 -105 20 -102 20 -169 30 -290 42 -36 3 -73 8 -83 10 -52 9 -591 26
-600 18z"/>
</g>
</svg>
